<svg xmlns="http://www.w3.org/2000/svg" baseProfile="tiny" width="512" height="512" viewBox="0 0 24 24"><g fill="#27C3C1"><path d="M23 2.1H1a.4.4 0 0 0-.4.4v19c0 .221.18.4.4.4h22a.4.4 0 0 0 .4-.4v-19a.4.4 0 0 0-.4-.4zm-.4.8v3.2H1.4V2.9h21.2zM1.4 21.1V6.9h21.2v14.2H1.4z"/><circle cx="3.404" cy="4.484" r=".405"/><circle cx="5.088" cy="4.484" r=".405"/><circle cx="6.732" cy="4.484" r=".405"/><path d="M15.126 16.082l-2.561-2.561 2.561-2.561a.4.4 0 0 0-.565-.566L12 12.955l-2.561-2.561a.4.4 0 0 0-.566.566l2.561 2.561-2.56 2.56a.4.4 0 0 0 .565.566L12 14.088l2.561 2.561c.155.155.41.155.565 0a.402.402 0 0 0 0-.567z"/></g></svg>